PathFileType	4	(X/Y/Z)	Patient4_TMGait_0pt3_02_right_22.trc.trc
DataRate	CameraRate	NumFrames	NumMarkers	Units	OrigDataRate	OrigDataStartFrame	OrigNumFrames
50.541516245487	50.541516245487	4	33	mm	50.541516245487	1	       141
Frame#	Time	Sacral			L.Shoulder			Chest			R.Shoulder			Neck			R.ASIS			L.ASIS			R.Thigh.Superior			R.Thigh.Lateral			R.Thigh.Inferior			R.Patella			L.Thigh.Superior			L.Thigh.Lateral			L.Thigh.Inferior			L.Patella			L.Shank.Superior			L.Shank.Lateral			L.Shank.Inferior			R.Shank.Superior			R.Shank.Lateral			R.Shank.Inferior			R.Heel			R.Midfoot.Superior			R.Midfoot.Lateral			R.Toe			L.Heel			L.Midfoot.Lateral			L.Midfoot.Superior			L.Toe			L.Elbow			L.Wrist			R.Elbow			R.Wrist			
		X1	Y1	Z1	X2	Y2	Z2	X3	Y3	Z3	X4	Y4	Z4	X5	Y5	Z5	X6	Y6	Z6	X7	Y7	Z7	X8	Y8	Z8	X9	Y9	Z9	X10	Y10	Z10	X11	Y11	Z11	X12	Y12	Z12	X13	Y13	Z13	X14	Y14	Z14	X15	Y15	Z15	X16	Y16	Z16	X17	Y17	Z17	X18	Y18	Z18	X19	Y19	Z19	X20	Y20	Z20	X21	Y21	Z21	X22	Y22	Z22	X23	Y23	Z23	X24	Y24	Z24	X25	Y25	Z25	X26	Y26	Z26	X27	Y27	Z27	X28	Y28	Z28	X29	Y29	Z29	X30	Y30	Z30	X31	Y31	Z31	X32	Y32	Z32	X33	Y33	Z33	

1	42.130000000000	755.958610476191	1001.696344176896	407.170794479314	935.580592952881	1425.137835865838	217.446449360537	1042.696726197216	1353.892936457361	374.881543525246	969.970799251318	1429.144930814579	551.661502143601	926.560037247325	1488.862532787370	375.360665633907	986.956772845374	932.839208491691	517.885063061931	967.867730964777	952.985735515245	245.246162082077	1025.693712689156	730.058489563604	500.344182872340	948.654693488771	624.027389042339	570.945127945551	1025.421616310238	561.605021080018	494.721319601332	1013.934826635137	452.958288384970	520.595781889691	1030.306915811576	749.852339275781	286.619063139940	955.669935906479	623.204776143296	231.886524981773	1046.460073356012	555.974757918162	300.779666701201	1052.651699306073	481.713818484423	311.367409174256	1016.885024506972	407.604753409345	307.307044907760	919.686404141281	300.363025505849	256.009496772667	953.168018936870	187.608116451005	331.580206303422	931.037779460880	391.653200917303	532.071848880296	808.518691597318	365.042748055593	596.497801326133	785.049766092762	254.852092136823	552.103345545905	578.373790098958	211.469597397355	530.957617596680	739.830210095399	133.239131715990	569.896690502737	631.485747866370	145.893359197153	603.659271189466	794.102867598313	29.211407899719	593.068593034152	809.492033205015	39.788466204373	369.520167451380	885.882425864339	36.165637249819	291.656886817510	969.788833133601	95.989780786070	321.389477622392	1097.987321951223	39.941755222488	295.675068410867	955.740574309940	1074.287771319223	92.890759812712	1087.109132635774	849.312903121002	119.395118679301	1009.246339330484	1078.720496727415	671.765493042613	1165.963935530287	870.035507857424	694.393583974124	
2	42.149785714286	754.228654770352	999.898780652524	402.759629497763	937.852408320225	1424.158827155362	215.997992463780	1041.892391480971	1352.349376725041	375.111748901152	966.106027030510	1426.945996744665	550.858607111311	926.305799669585	1487.487582170893	374.047837377641	984.774914640347	932.296389523362	515.917232801977	967.536385601918	951.420139713851	242.932001480204	1029.816519312498	733.067169693601	495.983706386124	957.643092106913	624.845064098037	566.907414141533	1035.874427949942	564.958263775967	489.636326229323	1027.372657669281	454.987028709093	515.696205636872	1030.075744309817	748.251877020948	284.505375753211	955.606547240640	621.491876306686	230.352997198263	1046.015462603753	554.398243677551	299.983716569917	1052.008704449594	479.959108777206	310.863245143578	1015.285113912645	405.806444418333	306.879721670415	917.052864414388	299.553419087990	255.451277703408	948.605396298453	186.697380313786	331.429323126710	943.362813563755	393.527118290811	527.489016084646	819.592800771648	369.665716370848	590.842615830334	794.730969135281	259.450643508617	547.579889200479	588.117365964239	220.320189697477	524.029407866324	747.272704420890	138.964165543143	566.247455389690	638.823977673440	154.844698739705	598.533849132971	797.812514611842	30.642059837854	592.721294864906	803.478982813688	39.887390390722	369.398554807392	879.871885570399	36.154456973565	291.571339480756	963.814300893044	95.871775021233	321.380700852946	1092.006182087363	39.812000303736	295.589889067246	966.321777686477	1074.823506141742	90.137356911833	1104.310859407373	854.275866219018	117.483811566170	988.654929033123	1075.713541442652	669.482763477410	1127.565677128201	857.885022450554	693.745454748495	
3	42.169571428571	752.441754859667	998.160816633638	398.309397188761	940.179619128039	1423.267617279942	214.644411138236	1041.033785630396	1350.873519936189	375.463638265172	962.076049900958	1424.797322947838	550.120524463876	926.023114666039	1486.174235900018	372.816720885603	982.481864037956	931.821696712782	513.974012008480	967.254393497134	949.963227126040	240.652091853257	1033.825505577285	736.273904457337	491.691014384310	966.588512622371	625.892592955043	562.939779652564	1046.254361979816	568.587987126173	484.618240862790	1040.866443225017	457.357906796747	510.848167175505	1029.771466687222	746.645397559514	282.371585163261	955.348548918888	619.799588862379	228.815118540149	1045.343482330701	552.792602222271	299.156250319502	1051.098683743353	478.211105466154	310.362108120694	1013.432427980412	404.018880949878	306.444936309630	914.188564303084	298.735718889345	254.885049126959	943.846416214127	185.791688452394	331.275563785735	955.921701522042	395.547684436731	522.958158716816	830.946850849742	373.952650323632	585.274937342496	805.035795137900	263.598116109910	543.069058530748	598.373254990552	227.703421979786	517.281791228868	755.845287204776	144.157966121863	562.572553006596	647.158628003096	162.555099283332	593.490109763570	803.456272637919	32.023491703223	592.150107781370	797.288146121659	39.970810638005	369.277229644062	873.689674276375	36.137224780948	291.479125518887	957.664168092007	95.749302879238	321.369036983281	1085.851391269198	39.687705297177	295.506301856881	977.063383382872	1075.575418406428	87.380964421591	1121.977392511938	859.766544024010	115.539968913998	967.420866407873	1073.003468920503	667.056781655944	1088.117480024885	846.302324391838	692.830823559669	
4	42.189357142857	750.638392580575	996.605439475445	393.944378675837	942.525503713871	1422.564838830954	213.487587101347	1040.127430581917	1349.577300941913	375.995634250545	957.934728398765	1422.828356143593	549.504481054307	925.710354975728	1485.024032187171	371.753065326343	980.091844369614	931.492416981706	512.146707802437	967.065243175085	948.743082860854	238.514012295967	1037.501991872970	739.667750840514	487.659436784591	975.110392303283	627.249757960600	559.219357675489	1056.117217241222	572.492629366955	479.893759137721	1053.925955791451	460.169624231619	506.269943069408	1029.328043358378	745.089739428611	280.299139510934	954.765929405624	618.220652370930	227.322948040519	1044.289888097325	551.211638187591	298.316987185467	1049.747538428828	476.548882453890	309.880185988740	1011.203017183654	402.331059572140	306.008358966600	911.028593387293	297.944472418186	254.321195144183	938.920799915419	184.935802007928	331.119212463714	968.380284606326	397.729298077394	518.689927239776	842.360952691793	377.570801314896	580.058644456333	816.003200485167	266.932030940572	538.770325007444	609.240210150020	232.589333226499	511.061846754503	765.939848173977	148.390279590954	559.020784036599	656.876799750025	168.139782878740	588.775588039151	811.920438238305	33.338959973282	591.323384193118	791.025940659824	40.029650217120	369.160034784559	867.444175476378	36.111690917661	291.380744804910	951.443918705735	95.626433884465	321.350830136532	1079.629563799618	39.576972315114	295.427479473230	987.703569557759	1076.663351929898	84.714293348704	1139.759995895506	865.923440053879	113.621922194865	945.953843178523	1070.876725993278	664.491911250242	1048.473539612304	836.000334823112	691.539965344389	
